<svg xmlns="http://www.w3.org/2000/svg" width="64" height="60.9" viewBox="0 0 64 60.9">
  <g id="svgexport-16_2_" data-name="svgexport-16 (2)" transform="translate(0 -1.6)">
    <g id="Group_2" data-name="Group 2">
      <path id="Path_1" data-name="Path 1" d="M16.4,37.8h-.9A14.51,14.51,0,0,0,1,52.3a9.176,9.176,0,0,0,9.2,9.2H41.3M35.2,37.8H36a12.673,12.673,0,0,1,3.4.4" fill="none" stroke="#00cb97" stroke-linecap="round" stroke-linejoin="round" stroke-miterlimit="10" stroke-width="2"/>
      <path id="Path_2" data-name="Path 2" d="M31.6,34.7V38a5.8,5.8,0,0,1-5.8,5.8A5.8,5.8,0,0,1,20,38V34.7a10.682,10.682,0,0,0,11.6,0Z" fill="none" stroke="#00cb97" stroke-linecap="round" stroke-linejoin="round" stroke-miterlimit="10" stroke-width="2"/>
      <path id="Path_3" data-name="Path 3" d="M36.5,21.9v3.4a10.817,10.817,0,0,1-10.2,11A10.592,10.592,0,0,1,15,25.7V21.9c.2.1.3.2.5.2a.849.849,0,0,0,.8-.7l1.1-4.2a1.388,1.388,0,0,1,2-.9A21.789,21.789,0,0,0,33,17.9a1.48,1.48,0,0,1,1.7,1.2l.3,2.3a.876.876,0,0,0,.9.7h.3c.1-.1.2-.1.3-.2Z" fill="none" stroke="#00cb97" stroke-linecap="round" stroke-linejoin="round" stroke-miterlimit="10" stroke-width="2"/>
      <path id="Path_4" data-name="Path 4" d="M39.2,24.7a2.94,2.94,0,0,1-2.9,2.7,7.569,7.569,0,0,0,.1-1.5V22a2.774,2.774,0,0,1,2.8,2.7Zm-26.9,0a2.94,2.94,0,0,0,2.9,2.7,7.569,7.569,0,0,1-.1-1.5V22A2.844,2.844,0,0,0,12.3,24.7Z" fill="none" stroke="#00cb97" stroke-linecap="round" stroke-linejoin="round" stroke-miterlimit="10" stroke-width="2"/>
      <path id="Path_5" data-name="Path 5" d="M16.4,21.4l1.1-4.2a1.388,1.388,0,0,1,2-.9,21.789,21.789,0,0,0,13.6,1.6,1.537,1.537,0,0,1,1.7,1.2l.4,2.3a.876.876,0,0,0,.9.7h.3a1.235,1.235,0,0,0,.8-.4,13.658,13.658,0,0,0,1.3-3.1A12.312,12.312,0,0,0,32.6,3.8a10.115,10.115,0,0,0-4.9-1.2c-4.1,0-7.6,2.3-9.6,3.9a12.107,12.107,0,0,1-2.8,1.8c-4.3,1.9-1.9,9.4-.3,13.2a.891.891,0,0,0,.8.5.726.726,0,0,0,.6-.6Z" fill="none" stroke="#00cb97" stroke-linecap="round" stroke-linejoin="round" stroke-miterlimit="10" stroke-width="2"/>
    </g>
    <path id="Path_6" data-name="Path 6" d="M51.8,50.9a1.135,1.135,0,0,0-.3-.8,1.865,1.865,0,0,0-1-.5,5.821,5.821,0,0,1-1.1-.5,2.129,2.129,0,0,1-1.3-2,2.035,2.035,0,0,1,.6-1.5,2.628,2.628,0,0,1,1.5-.7V43.7h.9V45a2.751,2.751,0,0,1,1.5.8,2.86,2.86,0,0,1,.5,1.7H51.8a1.8,1.8,0,0,0-.3-1.1.909.909,0,0,0-.8-.4.984.984,0,0,0-.8.3,1.217,1.217,0,0,0,0,1.6,1.865,1.865,0,0,0,1,.5,5.821,5.821,0,0,1,1.1.5,4.234,4.234,0,0,1,.7.5,2.092,2.092,0,0,1,.4.6,2.22,2.22,0,0,1,.1.9,2.035,2.035,0,0,1-.6,1.5,2.928,2.928,0,0,1-1.6.7v1.1h-.9V53.1a2.491,2.491,0,0,1-1.7-.8,2.352,2.352,0,0,1-.6-1.7h1.3a1.8,1.8,0,0,0,.3,1.1,1.159,1.159,0,0,0,1,.4,1.222,1.222,0,0,0,.9-.3.957.957,0,0,0,.5-.9Z" fill="#00cb97"/>
    <circle id="Ellipse_1" data-name="Ellipse 1" cx="12.5" cy="12.5" r="12.5" transform="translate(38 36.5)" fill="none" stroke="#00cb97" stroke-linecap="round" stroke-linejoin="round" stroke-miterlimit="10" stroke-width="2"/>
  </g>
</svg>
