<svg xmlns="http://www.w3.org/2000/svg" width="63.387" height="64.648" viewBox="0 0 63.387 64.648">
  <g id="svgexport-16_4_" data-name="svgexport-16 (4)" transform="translate(-12.839 -8)">
    <path id="Path_7" data-name="Path 7" d="M44.532,34.836a5.494,5.494,0,0,0-5.488,5.488c0,3.026,5.488,5.488,5.488,5.488s5.488-2.462,5.488-5.488A5.494,5.494,0,0,0,44.532,34.836Zm0,8.89a3.4,3.4,0,1,1,3.4-3.4A3.406,3.406,0,0,1,44.532,43.726Zm12.08-4.664a1.043,1.043,0,0,0-.833-1.021L53.2,37.511a9.06,9.06,0,0,0-.551-1.33l1.447-2.2a1.043,1.043,0,0,0-.133-1.311L52.182,30.89a1.043,1.043,0,0,0-1.311-.133l-2.2,1.447a9.045,9.045,0,0,0-1.33-.551l-.529-2.575a1.043,1.043,0,0,0-1.021-.833H43.271a1.043,1.043,0,0,0-1.021.833l-.529,2.576a9.054,9.054,0,0,0-1.33.551l-2.2-1.447a1.043,1.043,0,0,0-1.311.133L35.1,32.675a1.043,1.043,0,0,0-.133,1.311l1.447,2.2a9.053,9.053,0,0,0-.551,1.33l-2.576.529a1.043,1.043,0,0,0-.833,1.021v2.524a1.043,1.043,0,0,0,.833,1.021l2.576.529a9.065,9.065,0,0,0,.551,1.33l-1.447,2.2a1.043,1.043,0,0,0,.133,1.311l1.784,1.785a1.043,1.043,0,0,0,1.311.133l2.2-1.447A9.052,9.052,0,0,0,41.72,49l.529,2.575a1.043,1.043,0,0,0,1.021.833h2.524a1.043,1.043,0,0,0,1.021-.833L47.345,49a9.052,9.052,0,0,0,1.33-.551l2.2,1.447a1.043,1.043,0,0,0,1.311-.133l1.785-1.785a1.043,1.043,0,0,0,.133-1.311l-1.447-2.2a9.064,9.064,0,0,0,.551-1.33l2.576-.529a1.043,1.043,0,0,0,.833-1.021Zm-2.085,1.674-2.363.486a1.043,1.043,0,0,0-.8.774,6.979,6.979,0,0,1-.818,1.974,1.043,1.043,0,0,0,.02,1.115L51.89,47.1l-.582.582-2.014-1.327a1.043,1.043,0,0,0-1.116-.02,6.974,6.974,0,0,1-1.974.818,1.042,1.042,0,0,0-.774.8l-.486,2.363h-.823l-.486-2.363a1.042,1.042,0,0,0-.774-.8,6.977,6.977,0,0,1-1.975-.818,1.043,1.043,0,0,0-1.116.02l-2.014,1.327-.582-.582L38.5,45.086a1.043,1.043,0,0,0,.02-1.115A6.978,6.978,0,0,1,37.7,42a1.043,1.043,0,0,0-.8-.774l-2.363-.486v-.823l2.363-.486a1.043,1.043,0,0,0,.8-.774,6.978,6.978,0,0,1,.818-1.975,1.043,1.043,0,0,0-.02-1.115l-1.327-2.014.582-.582,2.014,1.327a1.043,1.043,0,0,0,1.116.02,6.977,6.977,0,0,1,1.974-.818,1.042,1.042,0,0,0,.774-.8l.486-2.363h.823l.486,2.363a1.043,1.043,0,0,0,.774.8,6.978,6.978,0,0,1,1.974.818,1.043,1.043,0,0,0,1.116-.02l2.014-1.327.582.582-1.327,2.014a1.043,1.043,0,0,0-.02,1.116,6.97,6.97,0,0,1,.818,1.974,1.043,1.043,0,0,0,.8.774l2.363.486Zm-30.773-5.6v2A2.15,2.15,0,0,0,25.9,39.281h3.311a1.043,1.043,0,1,1,0,2.085H25.9a4.238,4.238,0,0,1-4.233-4.233v-2a1.043,1.043,0,0,1,2.085,0ZM45.575,57.379V63.37A4.238,4.238,0,0,1,41.342,67.6h-5.7a1.043,1.043,0,1,1,0-2.085h5.7A2.15,2.15,0,0,0,43.49,63.37V57.379a1.043,1.043,0,0,1,2.085,0ZM43.49,23.269v-5.99a4.238,4.238,0,0,1,4.233-4.233h9a1.043,1.043,0,1,1,0,2.085h-9a2.15,2.15,0,0,0-2.148,2.147v5.991a1.043,1.043,0,0,1-2.085,0ZM65.311,45.516v-2a2.15,2.15,0,0,0-2.148-2.147H59.852a1.043,1.043,0,1,1,0-2.085h3.311A4.238,4.238,0,0,1,67.4,43.514v2a1.043,1.043,0,0,1-1.043,1.043h0a1.043,1.043,0,0,1-1.043-1.043ZM71.693,59a23.009,23.009,0,0,0-2.606-.49,6.765,6.765,0,0,0,2.283-5.249,5.114,5.114,0,0,0-1.494-3.91,5.528,5.528,0,0,0-7.044,0,5.114,5.114,0,0,0-1.494,3.91A6.769,6.769,0,0,0,63.611,58.5a21.373,21.373,0,0,0-2.6.5c-2.875.739-4.524,2.41-4.524,4.584v6.756a2.31,2.31,0,0,0,2.307,2.308H73.918a2.31,2.31,0,0,0,2.308-2.308V63.585C76.226,61.384,74.573,59.713,71.693,59Zm-5.339-8.831c1.337,0,2.931.536,2.931,3.092,0,2.265-1.342,4.179-2.931,4.179s-2.931-1.914-2.931-4.179C63.423,50.7,65.017,50.167,66.354,50.167ZM74.14,70.341a.225.225,0,0,1-.222.222h-1.7V65.429a1.043,1.043,0,1,0-2.085,0v5.134H62.579V65.428a1.043,1.043,0,1,0-2.085,0v5.134h-1.7a.225.225,0,0,1-.222-.222V63.585c0-1.491,1.609-2.218,2.958-2.565a19.153,19.153,0,0,1,4.783-.606,20.246,20.246,0,0,1,4.882.608c1.1.273,2.95.969,2.95,2.562ZM28.05,59a23,23,0,0,0-2.606-.49,6.765,6.765,0,0,0,2.283-5.249,5.114,5.114,0,0,0-1.494-3.91,5.034,5.034,0,0,0-3.522-1.267,5.034,5.034,0,0,0-3.522,1.267,5.114,5.114,0,0,0-1.494,3.91A6.769,6.769,0,0,0,19.968,58.5a21.373,21.373,0,0,0-2.6.5c-2.875.739-4.524,2.41-4.524,4.584v6.756a2.31,2.31,0,0,0,2.308,2.308H30.276a2.31,2.31,0,0,0,2.307-2.308V63.585C32.583,61.384,30.931,59.713,28.05,59Zm-5.339-8.831c1.337,0,2.931.536,2.931,3.092,0,2.265-1.342,4.179-2.931,4.179s-2.931-1.914-2.931-4.179c0-2.555,1.594-3.092,2.931-3.092ZM30.5,70.341a.225.225,0,0,1-.222.222h-1.7V65.428a1.043,1.043,0,1,0-2.085,0v5.134H18.937V65.428a1.043,1.043,0,1,0-2.085,0v5.134h-1.7a.225.225,0,0,1-.222-.222V63.585c0-1.491,1.609-2.218,2.958-2.565a19.153,19.153,0,0,1,4.783-.606,20.245,20.245,0,0,1,4.882.608c1.1.273,2.95.969,2.95,2.562Zm41.2-51.424a23.007,23.007,0,0,0-2.606-.49,6.765,6.765,0,0,0,2.283-5.249,5.114,5.114,0,0,0-1.494-3.91,5.529,5.529,0,0,0-7.044,0,5.114,5.114,0,0,0-1.494,3.91,6.769,6.769,0,0,0,2.273,5.241,21.373,21.373,0,0,0-2.6.5c-2.875.739-4.524,2.41-4.524,4.584v6.756a2.31,2.31,0,0,0,2.307,2.308H73.918a2.31,2.31,0,0,0,2.308-2.308V23.5C76.226,21.3,74.574,19.631,71.693,18.916Zm-5.339-8.831c1.337,0,2.931.536,2.931,3.092,0,2.265-1.342,4.179-2.931,4.179s-2.931-1.914-2.931-4.179C63.423,10.622,65.017,10.085,66.354,10.085ZM74.14,30.259a.225.225,0,0,1-.222.222h-1.7V25.347a1.043,1.043,0,1,0-2.085,0v5.134H62.579V25.347a1.043,1.043,0,1,0-2.085,0v5.134h-1.7a.225.225,0,0,1-.222-.222V23.5c0-1.491,1.609-2.218,2.958-2.565a19.153,19.153,0,0,1,4.783-.606,20.239,20.239,0,0,1,4.882.608c1.1.273,2.95.969,2.95,2.562ZM15.147,32.566H30.276a2.31,2.31,0,0,0,2.307-2.308V23.5c0-2.2-1.652-3.872-4.533-4.586a23.034,23.034,0,0,0-2.606-.49,6.765,6.765,0,0,0,2.283-5.249,5.114,5.114,0,0,0-1.494-3.91A5.034,5.034,0,0,0,22.711,8a5.033,5.033,0,0,0-3.522,1.267,5.114,5.114,0,0,0-1.494,3.91,6.769,6.769,0,0,0,2.273,5.241,21.375,21.375,0,0,0-2.6.5c-2.875.739-4.524,2.41-4.524,4.584v6.756A2.31,2.31,0,0,0,15.147,32.566Zm7.565-22.481c1.337,0,2.931.536,2.931,3.092,0,2.265-1.342,4.179-2.931,4.179s-2.931-1.914-2.931-4.179C19.781,10.622,21.374,10.085,22.711,10.085ZM14.924,23.5c0-1.491,1.609-2.218,2.958-2.565a19.153,19.153,0,0,1,4.783-.606,20.239,20.239,0,0,1,4.882.608c1.1.273,2.95.969,2.95,2.562v6.756a.225.225,0,0,1-.222.222h-1.7V25.347a1.043,1.043,0,1,0-2.085,0v5.134H18.937V25.347a1.043,1.043,0,1,0-2.085,0v5.134h-1.7a.225.225,0,0,1-.222-.222Z" fill="#00cb97"/>
  </g>
</svg>
