<svg xmlns="http://www.w3.org/2000/svg" width="54.178" height="67.489" viewBox="0 0 54.178 67.489">
  <g id="svgexport-16_3_" data-name="svgexport-16 (3)" transform="translate(-43.5)">
    <path id="Path_8" data-name="Path 8" d="M85.52,16.282A17.862,17.862,0,0,0,70.682,8.088,17.579,17.579,0,0,0,57.9,13.515a19.332,19.332,0,0,0-.7,25.938l2.755,3.864a.94.94,0,0,0,1.623-.141,1.017,1.017,0,0,0-.084-1.032l-2.782-3.9a.941.941,0,0,0-.06-.076,17.3,17.3,0,0,1,.6-23.249A15.716,15.716,0,0,1,70.59,10.065h.082A15.967,15.967,0,0,1,83.936,17.39a.937.937,0,0,0,1.328.265A1.01,1.01,0,0,0,85.52,16.282ZM64.007,51.671h0ZM87.458,20.148a.947.947,0,0,0-1.233-.575,1,1,0,0,0-.556,1.275,17.456,17.456,0,0,1,1.057,6.02,17.144,17.144,0,0,1-4.209,11.314.934.934,0,0,0-.061.078l-.641.9c-.761,1.069-1.519,2.134-2.284,3.207a1,1,0,0,0-.061.1,47.953,47.953,0,0,0-3.193,7.229H64.9c-.439-1.259-.927-2.509-1.462-3.723a.943.943,0,0,0-1.266-.49,1,1,0,0,0-.474,1.309q.629,1.431,1.167,2.9h-.05a.973.973,0,0,0-.956.989v2.966h-.446a.973.973,0,0,0-.956.989v3.954a.973.973,0,0,0,.956.989h.446v2.966a.973.973,0,0,0,.956.989h.632l.671,3.177a.964.964,0,0,0,.934.778H76.128a.964.964,0,0,0,.934-.778l.671-3.177h.632a.973.973,0,0,0,.956-.989V59.58h.446a.973.973,0,0,0,.956-.989V54.637a.973.973,0,0,0-.956-.989h-.446V50.683a.973.973,0,0,0-.956-.989h-.05a45.336,45.336,0,0,1,2.788-6.2c.754-1.057,1.5-2.107,2.251-3.161l.613-.861a19.157,19.157,0,0,0,4.671-12.6A19.49,19.49,0,0,0,87.458,20.148Zm-12.1,45.364H65.82L65.4,63.535H75.776Zm2.051-3.954H63.769V59.58h13.64Zm1.4-5.932V57.6H62.367V55.626h4.122a.989.989,0,0,0,0-1.977H63.769V51.671h13.64v1.977h-6.82a.989.989,0,0,0,0,1.977Zm-1.63-3.954h0ZM70.589,0a.973.973,0,0,0-.956.989V5.511a.957.957,0,1,0,1.912,0V.989A.973.973,0,0,0,70.589,0ZM60.538,8.032,58.351,4.116a.939.939,0,0,0-1.306-.362,1.007,1.007,0,0,0-.35,1.35l2.187,3.917a.939.939,0,0,0,1.306.362A1.007,1.007,0,0,0,60.538,8.032Zm-8.314,7.859L48.435,13.63a.939.939,0,0,0-1.306.362,1.007,1.007,0,0,0,.35,1.35L51.267,17.6a.939.939,0,0,0,1.306-.362,1.007,1.007,0,0,0-.35-1.35ZM93.7,40.652l-3.788-2.261a.939.939,0,0,0-1.306.362,1.007,1.007,0,0,0,.35,1.35l3.788,2.261A.939.939,0,0,0,94.049,42,1.007,1.007,0,0,0,93.7,40.652ZM48.83,26.982H44.456a.989.989,0,0,0,0,1.977H48.83a.989.989,0,0,0,0-1.977Zm47.892,0H92.348a.989.989,0,0,0,0,1.977h4.374a.989.989,0,0,0,0-1.977ZM52.573,38.7a.939.939,0,0,0-1.306-.362l-3.788,2.261a1.007,1.007,0,0,0-.35,1.35.939.939,0,0,0,1.306.362l3.788-2.261A1.007,1.007,0,0,0,52.573,38.7ZM94.049,13.935a.939.939,0,0,0-1.306-.362l-3.788,2.261a1.007,1.007,0,0,0-.35,1.35.939.939,0,0,0,1.306.362L93.7,15.285a1.007,1.007,0,0,0,.35-1.35ZM84.134,3.655a.939.939,0,0,0-1.306.362L80.641,7.933a1.018,1.018,0,0,0,0,.988.941.941,0,0,0,1.656,0l2.187-3.917a1.007,1.007,0,0,0-.35-1.35Z" transform="translate(0)" fill="#00cb97"/>
    <path id="Path_9" data-name="Path 9" d="M173.382,155.984l-3.775-3.056,3.775-3.056a.814.814,0,1,0-1.024-1.265L167.8,152.3a.814.814,0,0,0,0,1.265l4.556,3.688a.814.814,0,1,0,1.024-1.265ZM186.4,152.3l-4.556-3.688a.814.814,0,0,0-1.024,1.265l3.775,3.056-3.775,3.056a.814.814,0,1,0,1.024,1.265l4.556-3.688a.814.814,0,0,0,0-1.265Zm-6.489-6.084a.814.814,0,0,0-1.064.437l-4.99,11.932a.814.814,0,1,0,1.5.628l4.99-11.932a.814.814,0,0,0-.437-1.064Z" transform="translate(-106.511 -125.782)" fill="#00cb97"/>
  </g>
</svg>
