<svg xmlns="http://www.w3.org/2000/svg" width="62" height="62" viewBox="0 0 62 62">
  <g id="svgexport-16_5_" data-name="svgexport-16 (5)" transform="translate(-1 -1)">
    <path id="Path_10" data-name="Path 10" d="M53.495,47.862A17.994,17.994,0,1,0,31.14,20.531L20.257,14.769a10.009,10.009,0,1,0-.936,1.767l10.625,5.625A17.874,17.874,0,0,0,27.051,31h-6.1a10,10,0,1,0,0,2h6.1a17.874,17.874,0,0,0,2.9,8.839L19.32,47.464a10.017,10.017,0,1,0,.937,1.767L31.14,43.469A18.123,18.123,0,0,0,36.5,47.861l-4.249,10.32A3.35,3.35,0,0,0,32,59.471v.144a3.386,3.386,0,0,0,6.529,1.257L39.677,58H50.323l1.149,2.872A3.385,3.385,0,0,0,58,59.615v-.144a3.36,3.36,0,0,0-.255-1.289ZM6.208,17.391a6,6,0,0,1,9.584,0,7.94,7.94,0,0,1-9.584,0ZM8,10a3,3,0,1,1,3,3A3,3,0,0,1,8,10Zm9.232,6A8,8,0,0,0,14.3,13.726a5,5,0,1,0-6.6,0A8.007,8.007,0,0,0,4.768,16a8,8,0,1,1,12.464,0ZM6.208,59.391a6,6,0,0,1,9.584,0,7.94,7.94,0,0,1-9.584,0ZM8,52a3,3,0,1,1,3,3A3,3,0,0,1,8,52Zm9.232,6A8,8,0,0,0,14.3,55.726a5,5,0,1,0-6.6,0A8.007,8.007,0,0,0,4.768,58a8,8,0,1,1,12.464,0ZM31.714,23.1l1.783.944A13.9,13.9,0,0,0,31.051,31h-2a15.888,15.888,0,0,1,2.663-7.9ZM37.069,33a7.961,7.961,0,0,0,1.79,4.119l-3.577,1.894A11.921,11.921,0,0,1,33.05,33Zm2.021-2a5.98,5.98,0,0,1,1.591-3.155l3.851,2.039.936-1.768-2.96-1.567a6,6,0,1,1,0,10.9l2.96-1.567-.936-1.768-3.851,2.039A5.98,5.98,0,0,1,39.09,33H45V31Zm1.335,7.553a8,8,0,1,0,0-13.1L36.616,23.43a12,12,0,1,1,0,17.139ZM38.86,26.881A7.965,7.965,0,0,0,37.07,31H33.051a11.921,11.921,0,0,1,2.232-6.013ZM6.208,38.391a6,6,0,0,1,9.584,0,7.94,7.94,0,0,1-9.584,0ZM8,31a3,3,0,1,1,3,3A3,3,0,0,1,8,31Zm9.232,6A8,8,0,0,0,14.3,34.726a5,5,0,1,0-6.6,0A8.007,8.007,0,0,0,4.768,37a8,8,0,1,1,12.464,0Zm11.819-4h2A13.9,13.9,0,0,0,33.5,39.959l-1.783.944A15.894,15.894,0,0,1,29.051,33Zm3.91,9.505,1.822-.964a14,14,0,1,0,0-19.081L32.961,21.5a16,16,0,1,1,0,21.009Zm3.71,17.625A1.386,1.386,0,0,1,34,59.615v-.144a1.376,1.376,0,0,1,.1-.527L38.322,48.7a17.926,17.926,0,0,0,2.594.814ZM40.477,56l2.451-6.129a16.7,16.7,0,0,0,4.143,0L49.523,56ZM56,59.615a1.386,1.386,0,0,1-2.671.515L49.083,49.515a17.726,17.726,0,0,0,2.594-.814L55.9,58.945a1.372,1.372,0,0,1,.1.527Z" fill="#00cb97"/>
  </g>
</svg>
